<?xml version="1.0" encoding="utf-8"?>
<!-- Generator: Adobe Illustrator 22.0.1, SVG Export Plug-In . SVG Version: 6.00 Build 0)  -->
<svg version="1.1" id="Icons" xmlns="http://www.w3.org/2000/svg" xmlns:xlink="http://www.w3.org/1999/xlink" x="0px" y="0px"
	 viewBox="0 0 160 160" style="enable-background:new 0 0 160 160;" xml:space="preserve">
<style type="text/css">
	.st0{fill:none;}
	.st1{fill:#FFFFFF;}
</style>
<title>Affordable</title>
<path class="st0" d="M51.9,61.2H40.1V73C46.6,73,51.9,67.7,51.9,61.2C51.9,61.2,51.9,61.2,51.9,61.2z"/>
<path class="st0" d="M119.9,85v2c-6.5,0-11.8,5.3-11.8,11.8h11.8V61.2h-11.8c0,6.5,5.2,11.8,11.7,11.8c0,0,0,0,0,0v2
	c-7.6,0-13.8-6.2-13.8-13.8H92.3c10.4,6.8,13.3,20.7,6.5,31.1c-1.7,2.6-3.9,4.8-6.5,6.5h13.8C106.1,91.2,112.3,85,119.9,85
	C119.9,85,119.9,85,119.9,85z"/>
<path class="st0" d="M40.1,87v11.8h11.8C51.9,92.3,46.6,87,40.1,87C40.1,87,40.1,87,40.1,87z"/>
<path class="st0" d="M40.1,75v10c7.6,0,13.8,6.2,13.8,13.8h13.8C57.3,92,54.4,78.1,61.2,67.7c1.7-2.6,3.9-4.8,6.5-6.5H53.9
	C53.9,68.8,47.7,75,40.1,75z"/>
<path class="st0" d="M79.4,85.7c-2.2-0.1-4.4-0.9-6.1-2.3c-0.1-0.2-2,1.2-2,2.9c0,2.1,2.1,3.7,6.1,4.1v0.7c0,2.1,0.7,3.1,2.6,3.1
	h0.2c1.8,0,2.6-1.1,2.6-3.1v-0.8c3.8-0.7,5.9-3,5.9-6.5c0-4.4-4.2-5.6-7.1-6.2c-2.1-0.5-3.7-0.7-3.7-1.8s0.8-1.6,2.7-1.6
	c2,0.1,4,0.9,5.5,2.2c1.2-0.6,2-1.8,2.1-3.1c0-2-1.8-3.4-5.4-3.9v-0.6c0-2.1-0.7-3.1-2.6-3.1H80c-1.8,0-2.6,1.1-2.6,3.1v0.7
	c-3.6,0.8-5.6,3-5.6,6.3c0,4.6,4.1,5.7,6.9,6.3c2,0.4,3.5,0.7,3.5,1.9S81.3,85.7,79.4,85.7z"/>
<path class="st1" d="M119.9,75v-2c-6.5,0-11.8-5.3-11.8-11.8h-2C106.1,68.8,112.3,75,119.9,75z"/>
<path class="st1" d="M119.9,87v-2c-7.6,0-13.8,6.2-13.8,13.8h2C108.1,92.3,113.4,87,119.9,87z"/>
<path class="st1" d="M40.1,85v2c6.5,0,11.8,5.3,11.8,11.8c0,0,0,0,0,0h2C53.9,91.2,47.7,85,40.1,85z"/>
<path class="st1" d="M53.9,61.2h-2c0,6.5-5.2,11.8-11.7,11.8c0,0,0,0,0,0v2C47.7,75,53.9,68.8,53.9,61.2z"/>
<path class="st1" d="M53.9,98.8H40.1V61.2h27.6c1.2-0.8,2.5-1.5,3.8-2H40.1c-1.1,0-2,0.9-2,2v37.6c0,1.1,0.9,2,2,2h31.4
	c-1.3-0.5-2.6-1.2-3.8-2H53.9z"/>
<path class="st1" d="M106.1,61.2h13.8v37.6H92.3c-1.2,0.8-2.5,1.5-3.8,2h31.4c1.1,0,2-0.9,2-2V61.2c0-1.1-0.9-2-2-2H88.6
	c1.3,0.5,2.6,1.2,3.8,2H106.1z"/>
<path class="st1" d="M88.6,100.8c11.5-4.7,17-17.9,12.3-29.4s-17.9-17-29.4-12.3S54.4,77,59.2,88.5c3.5,8.4,11.7,14,20.8,14
	C82.9,102.5,85.8,101.9,88.6,100.8z M78.7,82.2c-2.7-0.6-6.9-1.7-6.9-6.2c0-3.3,2.1-5.6,5.6-6.3v-0.8c0-2,0.8-3.1,2.6-3.1h0.2
	c1.9,0,2.6,1,2.6,3.1v0.6c3.6,0.4,5.4,1.9,5.4,3.9c-0.1,1.3-0.9,2.5-2.2,3.1c-1.5-1.4-3.4-2.1-5.5-2.2c-1.8,0-2.7,0.6-2.7,1.6
	s1.6,1.4,3.7,1.8c2.8,0.6,7.1,1.8,7.1,6.2c0,3.5-2.1,5.7-5.9,6.5v0.8c0,2-0.8,3.1-2.6,3.1H80c-1.9,0-2.6-1-2.6-3.1v-0.7
	c-3.9-0.4-6.1-2-6.1-4.1c0-1.7,1.8-3.1,2-2.9c1.7,1.4,3.9,2.2,6.1,2.3c1.9,0,2.8-0.5,2.8-1.6S80.6,82.7,78.7,82.2z"/>
<path class="st1" d="M79.8-0.4V3h0.9c42.5,0.4,76.7,35.1,76.3,77.7c-0.2,20.3-8.4,39.8-22.8,54.1C119.8,149,100.3,157.1,80,157h-0.8
	C36.7,156.6,2.6,121.7,3,79.2c0.2-20.3,8.4-39.7,22.8-54C40.2,11,59.6,3,79.9,3l-0.1-3 M80,0C35.8-0.2-0.2,35.4-0.4,79.6
	S35,159.8,79.2,160H80c44.2,0.2,80.2-35.4,80.4-79.6S125,0.2,80.8,0H80z"/>
</svg>
