<svg id="Icons" xmlns="http://www.w3.org/2000/svg" viewBox="0 0 160 160"><defs><style>.cls-1{fill:#b3b3b3;}.cls-1,.cls-3{stroke:#606060;stroke-linecap:round;stroke-miterlimit:10;stroke-width:2px;}.cls-2{fill:#da291c;}.cls-3{fill:none;}.cls-4{fill:#606060;}</style></defs><title>Omnichannel - Bank Deposit</title><line class="cls-1" x1="47.77" y1="65.16" x2="47.77" y2="106.71"/><line class="cls-1" x1="57.48" y1="65.16" x2="57.48" y2="106.71"/><path class="cls-2" d="M98.88,67.9A18.14,18.14,0,0,0,80.8,49.81h0a18.06,18.06,0,0,0-7.49,34.51v10H69.9a1.45,1.45,0,0,0-1.08,2.4L79.7,109.08a1.44,1.44,0,0,0,1.08.49h0a1.45,1.45,0,0,0,1.08-.49L92.78,96.72a1.45,1.45,0,0,0-1.08-2.4H88.29v-10A18.13,18.13,0,0,0,98.88,67.9ZM79.75,69.68c-2.18-.45-5.51-1.36-5.51-5,0-2.66,1.65-4.47,4.53-5.09V59c0-1.62.61-2.48,2.08-2.48H81c1.52,0,2.08.8,2.08,2.48v.45c2.85.35,4.31,1.49,4.31,3.12a3.07,3.07,0,0,1-1.7,2.5,6.92,6.92,0,0,0-4.39-1.78c-1.46,0-2.13.45-2.13,1.25s1.25,1.12,2.93,1.49c2.26.45,5.67,1.44,5.67,5,0,2.8-1.65,4.61-4.71,5.19v.67c0,1.62-.61,2.48-2.08,2.48h-.13c-1.52,0-2.08-.8-2.08-2.48v-.53c-3.17-.35-4.87-1.6-4.87-3.3a2.83,2.83,0,0,1,1.6-2.37,8.27,8.27,0,0,0,4.9,1.84c1.52,0,2.21-.43,2.21-1.25S81.32,70,79.75,69.68Zm7.09,27.53h1.65l-7.71,8.73L73.1,97.21h1.66a1.45,1.45,0,0,0,1.45-1.45V85.36a17.9,17.9,0,0,0,4.6.62h0a17.9,17.9,0,0,0,4.6-.62V95.77A1.45,1.45,0,0,0,86.84,97.21Z"/><line class="cls-3" x1="117.4" y1="115.19" x2="44.2" y2="115.19"/><line class="cls-1" x1="113.83" y1="65.16" x2="113.83" y2="106.71"/><line class="cls-1" x1="104.12" y1="65.16" x2="104.12" y2="106.71"/><line class="cls-3" x1="122.35" y1="121.48" x2="39.25" y2="121.48"/><polyline class="cls-3" points="127.8 61.32 80.8 38.59 33.8 61.32"/><path class="cls-4" d="M80,3A77,77,0,1,1,3,80,77.09,77.09,0,0,1,80,3m0-3a80,80,0,1,0,80,80A80,80,0,0,0,80,0Z"/></svg>