<svg id="Icons" xmlns="http://www.w3.org/2000/svg" xmlns:xlink="http://www.w3.org/1999/xlink" viewBox="0 0 160 160"><defs><style>.cls-1{filter:url(#luminosity-noclip);}.cls-2{mask:url(#mask);}.cls-3,.cls-4,.cls-7{fill:none;stroke:#606060;stroke-width:2px;}.cls-3,.cls-7{stroke-linecap:round;}.cls-3,.cls-4{stroke-linejoin:round;}.cls-5{fill:#da291c;}.cls-6{fill:#606060;}.cls-7{stroke-miterlimit:10;}</style><filter id="luminosity-noclip" x="37.56" y="41.1" width="82.98" height="75" filterUnits="userSpaceOnUse" color-interpolation-filters="sRGB"><feFlood flood-color="#fff" result="bg"/><feBlend in="SourceGraphic" in2="bg"/></filter><mask id="mask" x="37.56" y="41.1" width="82.98" height="75" maskUnits="userSpaceOnUse"><polygon class="cls-1" points="108.15 50.92 88.14 103.17 93.27 108.46 98.05 108.94 120.54 52.17 108.15 50.92"/></mask></defs><title>Complete Form</title><g class="cls-2"><polygon class="cls-3" points="99.02 115.1 38.56 115.1 38.56 42.1 88.46 42.1 99.28 53.92 99.02 115.1"/></g><polyline class="cls-4" points="87.56 41.1 87.56 54.1 99.56 54.1"/><circle class="cls-5" cx="45.97" cy="48.73" r="2.53"/><rect class="cls-6" x="50.23" y="47.81" width="19.22" height="3.41" rx="1.71" ry="1.71"/><line class="cls-7" x1="44.91" y1="69.67" x2="92.91" y2="69.67"/><line class="cls-7" x1="44.91" y1="77" x2="92.91" y2="77"/><line class="cls-7" x1="44.91" y1="91.66" x2="90.75" y2="91.66"/><line class="cls-7" x1="44.91" y1="84.33" x2="92.91" y2="84.33"/><path class="cls-6" d="M101,52.55h6.45a1,1,0,0,1,1,1v49a0,0,0,0,1,0,0H100a0,0,0,0,1,0,0v-49A1,1,0,0,1,101,52.55Z" transform="translate(34.97 -32.35) rotate(21.14)"/><path class="cls-6" d="M98.63,103.61l-4.16,1.84a1.42,1.42,0,0,1-1.87-.72l-1.84-4.16Z"/><path class="cls-6" d="M72.46,105.23c3.77-.65,6.87.45,10.49,1,1.5.22,3,.4,4.48.68,2.28.42,3.19-.08,5.66-.21.48,0,.48-.78,0-.75a38.62,38.62,0,0,1-12.16-.81,19.06,19.06,0,0,0-8.67-.62c-.47.08-.27.8.2.72Z"/><path class="cls-6" d="M80,3A77,77,0,1,1,3,80,77.09,77.09,0,0,1,80,3m0-3a80,80,0,1,0,80,80A80,80,0,0,0,80,0Z"/></svg>