<svg id="Icons" xmlns="http://www.w3.org/2000/svg" viewBox="0 0 160 160"><defs><style>.cls-1,.cls-3{fill:none;}.cls-1{stroke:#da291c;stroke-linecap:round;stroke-linejoin:round;stroke-width:2px;}.cls-2{fill:#da291c;}.cls-3{stroke:#606060;stroke-miterlimit:10;stroke-width:2.15px;}.cls-4{fill:#606060;}</style></defs><title>Complete Your Transaction</title><path class="cls-1" d="M91.67,36.55a45,45,0,0,1,.18,87.06"/><path class="cls-1" d="M67.17,123.21a45,45,0,0,1-.33-86.1"/><line class="cls-1" x1="91.86" y1="123.62" x2="110.1" y2="123.62"/><line class="cls-1" x1="66.84" y1="37.11" x2="48.69" y2="37.02"/><path class="cls-2" d="M104.89,79.9a23.5,23.5,0,1,1-23-24A23.5,23.5,0,0,1,104.89,79.9ZM83.61,83.77c0,1.07-.93,1.61-2.9,1.57a10.75,10.75,0,0,1-6.32-2.51c-.13-.18-2.1,1.24-2.14,3,0,2.21,2.14,3.88,6.25,4.41V91c0,2.18.66,3.23,2.64,3.27h.17c1.9,0,2.72-1.05,2.76-3.16l0-.86c4-.68,6.19-3,6.26-6.63C90.42,79,86,77.66,83.08,77c-2.17-.53-3.79-.84-3.77-2s.9-1.61,2.8-1.57a9,9,0,0,1,5.66,2.43,4,4,0,0,0,2.28-3.21c0-2.11-1.83-3.64-5.53-4.16V67.9c0-2.18-.66-3.23-2.64-3.27h-.17c-1.9,0-2.72,1.05-2.76,3.16v.76c-3.75.72-5.94,3-6,6.49-.09,4.77,4.21,6,7,6.68C82,82.22,83.63,82.56,83.61,83.77Z"/><circle class="cls-3" cx="81.39" cy="79.44" r="29" transform="translate(0.37 159.25) rotate(-88.88)"/><path class="cls-4" d="M80,3A77,77,0,1,1,3,80,77.09,77.09,0,0,1,80,3m0-3a80,80,0,1,0,80,80A80,80,0,0,0,80,0Z"/></svg>