<svg id="Icons" xmlns="http://www.w3.org/2000/svg" viewBox="0 0 160 160"><defs><style>.cls-1{fill:none;}.cls-1,.cls-2{stroke:#606060;stroke-linecap:round;stroke-linejoin:round;stroke-width:2px;}.cls-2{fill:#da291c;}.cls-3{fill:#606060;}</style></defs><title>Convenient</title><path class="cls-1" d="M110.14,123.25l-22.66.62c-8.61.24-20.24-3.77-26.92-9.67-1.08-1-11.86-2.5-18.26-2.58l0-34.92c10-5.34,32.88-5.78,47.21-26l4.82-13c1.34-3.62,8.48-.67,9.85,2.94s1.44,11.47-.44,14.88l-7.22,13"/><rect class="cls-2" x="32.64" y="73.85" width="9.71" height="39.8"/><path class="cls-1" d="M123.8,74.54v1a6.29,6.29,0,0,1-6.27,6.27H99.83a6.29,6.29,0,0,1-6.27-6.27v-1a6.29,6.29,0,0,1,6.27-6.27h17.71a6.28,6.28,0,0,1,6.27,6.27Z"/><path class="cls-1" d="M127.36,88.65v1a6.29,6.29,0,0,1-6.27,6.27h-21a6.3,6.3,0,0,1-6.27-6.27v-1a6.29,6.29,0,0,1,6.27-6.27h21a6.28,6.28,0,0,1,6.27,6.27Z"/><path class="cls-1" d="M121.84,102.76v1a6.29,6.29,0,0,1-6.27,6.27H101.17a6.29,6.29,0,0,1-6.27-6.27v-1a6.29,6.29,0,0,1,6.27-6.27h14.41a6.28,6.28,0,0,1,6.27,6.27Z"/><path class="cls-1" d="M116.54,116.19v1a6.29,6.29,0,0,1-6.27,6.27H99.17a6.3,6.3,0,0,1-6.27-6.27v-1a6.29,6.29,0,0,1,6.27-6.27h11.1a6.28,6.28,0,0,1,6.27,6.27Z"/><path class="cls-1" d="M94.18,72.47C91.69,83.7,86.38,90.19,78,91.85"/><path class="cls-3" d="M80,3A77,77,0,1,1,3,80,77.09,77.09,0,0,1,80,3m0-3a80,80,0,1,0,80,80A80,80,0,0,0,80,0Z"/></svg>