<svg id="Icons" xmlns="http://www.w3.org/2000/svg" xmlns:xlink="http://www.w3.org/1999/xlink" viewBox="0 0 160 160"><defs><style>.cls-1{filter:url(#luminosity-noclip);}.cls-2{mask:url(#mask);}.cls-3{fill:#da291c;}.cls-4,.cls-5{fill:none;stroke:#606060;stroke-width:2px;}.cls-4{stroke-linecap:round;stroke-linejoin:round;}.cls-5{stroke-miterlimit:10;}.cls-6{fill:#606060;}</style><filter id="luminosity-noclip" x="43.9" y="33.65" width="72.19" height="97.82" filterUnits="userSpaceOnUse" color-interpolation-filters="sRGB"><feFlood flood-color="#fff" result="bg"/><feBlend in="SourceGraphic" in2="bg"/></filter><mask id="mask" x="43.9" y="33.65" width="72.19" height="97.82" maskUnits="userSpaceOnUse"><path class="cls-1" d="M80,33.65a36.14,36.14,0,0,0-36.1,36.1c0,20.7,28.15,48.31,36.09,56.61,7.73-8.16,36.1-35.58,36.1-56.61A36.14,36.14,0,0,0,80,33.65Z"/></mask></defs><title>Find a Location</title><g class="cls-2"><ellipse class="cls-3" cx="80" cy="126.99" rx="24.37" ry="4.48"/></g><path class="cls-4" d="M80,33.65a36.14,36.14,0,0,0-36.1,36.1c0,20.7,28.15,48.31,36.09,56.61,7.73-8.16,36.1-35.58,36.1-56.61A36.14,36.14,0,0,0,80,33.65Z"/><circle class="cls-5" cx="80" cy="68.1" r="24.37"/><path class="cls-6" d="M80,3A77,77,0,1,1,3,80,77.09,77.09,0,0,1,80,3m0-3a80,80,0,1,0,80,80A80,80,0,0,0,80,0Z"/></svg>