<svg id="Icons" xmlns="http://www.w3.org/2000/svg" viewBox="0 0 60 60"><defs><style>.cls-1{fill:#fff;}</style></defs><title>MobileMenu - Home</title><path class="cls-1" d="M30,2A28,28,0,1,1,2,30,28,28,0,0,1,30,2m0-2A30,30,0,1,0,60,30,30,30,0,0,0,30,0Z"/><path class="cls-1" d="M43,43.81a1,1,0,0,0,1-1V28.22l3.14,2.14a1,1,0,0,0,1.43-.25,1,1,0,0,0-.22-1.4L30.59,16.36l-.07,0,0,0-.05,0-.16-.06-.11,0h-.28l-.11,0-.16.06-.05,0,0,0-.08,0L11.67,28.71a1,1,0,0,0-.25,1.4,1,1,0,0,0,1.37.25l3-2.14V42.8a1,1,0,0,0,1,1h5a1,1,0,0,0,1-1V32.74a1,1,0,0,1,1-1h5a1,1,0,0,1,1,1V42.8a1,1,0,0,0,1,1Z"/></svg>