<svg id="Icons" xmlns="http://www.w3.org/2000/svg" viewBox="0 0 160 160"><defs><style>.cls-1{fill:#da291c;}.cls-2{fill:#606060;}.cls-3{fill:none;stroke:#606060;stroke-linecap:round;stroke-miterlimit:10;stroke-width:2px;}</style></defs><title>Omnichannel - Mobile Wallet</title><path class="cls-1" d="M98.08,65.64A18.14,18.14,0,0,0,80,47.56h0a18.06,18.06,0,0,0-7.49,34.51v10H69.1A1.45,1.45,0,0,0,68,94.46L78.9,106.82a1.44,1.44,0,0,0,1.08.49h0a1.45,1.45,0,0,0,1.08-.49L92,94.46a1.45,1.45,0,0,0-1.08-2.4H87.49v-10A18.13,18.13,0,0,0,98.08,65.64ZM78.95,67.42c-2.18-.45-5.51-1.36-5.51-5,0-2.66,1.65-4.47,4.53-5.09v-.59c0-1.62.61-2.48,2.08-2.48h.13c1.52,0,2.08.8,2.08,2.48v.45c2.85.35,4.31,1.49,4.31,3.12a3.07,3.07,0,0,1-1.7,2.5A6.92,6.92,0,0,0,80.47,61c-1.46,0-2.13.45-2.13,1.25s1.25,1.12,2.93,1.49c2.26.45,5.67,1.44,5.67,5,0,2.8-1.65,4.61-4.71,5.19v.67c0,1.62-.61,2.48-2.08,2.48H80c-1.52,0-2.08-.8-2.08-2.48V74c-3.17-.35-4.87-1.6-4.87-3.3a2.83,2.83,0,0,1,1.6-2.37,8.27,8.27,0,0,0,4.9,1.84c1.52,0,2.21-.43,2.21-1.25S80.52,67.77,78.95,67.42ZM86,95h1.65L80,103.68,72.3,95H74a1.45,1.45,0,0,0,1.45-1.45V83.1a17.9,17.9,0,0,0,4.6.62h0a17.9,17.9,0,0,0,4.6-.62V93.51A1.45,1.45,0,0,0,86,95Z"/><path class="cls-2" d="M103.14,36a.43.43,0,0,1,.43.43v87.13a.43.43,0,0,1-.43.43H56.86a.43.43,0,0,1-.43-.43V36.43a.43.43,0,0,1,.43-.43h46.29m0-2H56.86a2.43,2.43,0,0,0-2.43,2.43v87.13A2.43,2.43,0,0,0,56.86,126h46.29a2.43,2.43,0,0,0,2.43-2.43V36.43A2.43,2.43,0,0,0,103.14,34Z"/><path class="cls-2" d="M56.14,110.38v11.15c0,1-.3,2.73.44,3.34.58.48,2.09,0,2.9,0h41.34c1,0,2.42.08,3-.61s.31-1.88.31-2.73V110.38Zm32.48,8.25H72.46a1,1,0,1,1,0-2H88.63a1,1,0,1,1,0,2Z"/><line class="cls-3" x1="61.56" y1="42.13" x2="98.56" y2="42.13"/><path class="cls-2" d="M80,3A77,77,0,1,1,3,80,77.09,77.09,0,0,1,80,3m0-3a80,80,0,1,0,80,80A80,80,0,0,0,80,0Z"/></svg>