<svg id="Icons" xmlns="http://www.w3.org/2000/svg" xmlns:xlink="http://www.w3.org/1999/xlink" viewBox="0 0 160 160"><defs><style>.cls-1{filter:url(#luminosity-noclip);}.cls-2{mask:url(#mask);}.cls-3{fill:#da291c;}.cls-4{fill:none;stroke:#606060;stroke-linecap:round;stroke-linejoin:round;stroke-width:2px;}.cls-5{fill:#606060;}</style><filter id="luminosity-noclip" x="31.83" y="49.88" width="96.33" height="60.24" filterUnits="userSpaceOnUse" color-interpolation-filters="sRGB"><feFlood flood-color="#fff" result="bg"/><feBlend in="SourceGraphic" in2="bg"/></filter><mask id="mask" x="31.83" y="49.88" width="96.33" height="60.24" maskUnits="userSpaceOnUse"><path class="cls-1" d="M92.18,49.88h-51a9.37,9.37,0,0,0-9.34,9.34V84.64A8.2,8.2,0,0,0,40,92.82h8.27a1,1,0,0,1,1,1v7.8a1,1,0,0,0,1.75.77l10.19-9.34a1,1,0,0,1,.7-.27H92a5.81,5.81,0,0,0,5.8-5.8V55.53A5.65,5.65,0,0,0,92.18,49.88Z"/></mask></defs><title>Notify Your Recepient</title><g class="cls-2"><path class="cls-3" d="M87.51,74.54h34.36a6.31,6.31,0,0,1,6.29,6.29V97.95a5.53,5.53,0,0,1-5.51,5.51h-5.57a.7.7,0,0,0-.7.7v5.25a.7.7,0,0,1-1.18.52l-6.87-6.29a.7.7,0,0,0-.47-.18H87.62a3.92,3.92,0,0,1-3.9-3.9V78.34A3.8,3.8,0,0,1,87.51,74.54Z"/></g><path class="cls-4" d="M92.18,49.88h-51a9.37,9.37,0,0,0-9.34,9.34V84.64A8.2,8.2,0,0,0,40,92.82h8.27a1,1,0,0,1,1,1v7.8a1,1,0,0,0,1.75.77l10.19-9.34a1,1,0,0,1,.7-.27H92a5.81,5.81,0,0,0,5.8-5.8V55.53A5.65,5.65,0,0,0,92.18,49.88Z"/><rect class="cls-5" x="44.06" y="59" width="29.58" height="1.86" rx="0.71" ry="0.71"/><rect class="cls-5" x="44.06" y="68.85" width="44.39" height="1.86" rx="0.71" ry="0.71"/><rect class="cls-5" x="44.06" y="78.69" width="44.39" height="1.86" rx="0.71" ry="0.71"/><path class="cls-5" d="M80,3A77,77,0,1,1,3,80,77.09,77.09,0,0,1,80,3m0-3a80,80,0,1,0,80,80A80,80,0,0,0,80,0Z"/></svg>