<svg id="Icons" xmlns="http://www.w3.org/2000/svg" width="160" height="160" viewBox="0 0 160 160">
  <defs>
    <style>
      .cls-1 {
        fill: #606060;
      }

      .cls-2 {
        fill: #da291c;
      }
    </style>
  </defs>
  <title>Reliable</title>
  <g>
    <g>
      <path class="cls-1" d="M80,132.59c-10.25,0-20.14-8.23-35.93-24.43-4.1-4.29-6.66-12-6.69-16.77V52.91a13.85,13.85,0,0,1,9.41-12.74,106.37,106.37,0,0,1,66.48,0,14,14,0,0,1,9.36,12.73V91.36c0,4.75-2.58,12.51-6.67,16.77C100.16,124.36,90.26,132.59,80,132.59Zm0-95.75a103.73,103.73,0,0,0-32.6,5.23,11.78,11.78,0,0,0-8,10.83V91.38c0,4.34,2.38,11.46,6.13,15.39,15.39,15.8,24.95,23.82,34.49,23.82s19.12-8,34.53-23.85c3.74-3.9,6.08-11,6.1-15.39V52.91a12,12,0,0,0-8-10.83A104,104,0,0,0,80,36.85Z"/>
      <path class="cls-2" d="M108.89,51.05a94.92,94.92,0,0,0-57.78,0,2.94,2.94,0,0,0-2,2.81V91.33c0,2.27,1.67,6.88,3.38,8.67C63.17,111,73.35,120.9,80,120.9S96.8,111,107.52,100c1.72-1.8,3.38-6.41,3.41-8.68V53.85A2.94,2.94,0,0,0,108.89,51.05Zm-55,47.57c-1.3-1.37-2.79-5.53-2.82-7.3V53.86a.94.94,0,0,1,.66-.9A92.56,92.56,0,0,1,80,48.55l-1,70.26C73,117.77,62.93,107.9,53.89,98.62Zm55-7.28c0,1.77-1.54,5.93-2.85,7.31C97.06,107.91,87,117.74,81,118.8l1-70.21A91.91,91.91,0,0,1,108.28,53a.94.94,0,0,1,.66.9Z"/>
    </g>
    <path class="cls-1" d="M80,3A77,77,0,1,1,3,80,77.09,77.09,0,0,1,80,3m0-3a80,80,0,1,0,80,80A80,80,0,0,0,80,0Z"/>
  </g>
</svg>
